
 
http://www.imdb.com/title/tt1428538




General
Complete name               : Hans.and.gretel.witch.hunters.ENG.2013.cam-rip.avi
Format                           : AVI
Format/Info                      : Audio Video Interleave
File size                        : 771 MiB
Duration                         : 1h 20mn
Overall bit rate                 : 1 343 Kbps
Writing library                  : VirtualDub build 32842/release

Video
ID                               : 0
Format                           : AVC
Format/Info                      : Advanced Video Codec
Format profile                   : High@L4.1
Format settings, CABAC           : Yes
Format settings, ReFrames        : 4 frames
Codec ID                         : AVC1
Duration                         : 10s 10ms
Bit rate                         : 1 200 Kbps
Width                            : 700 pixels
Height                           : 330 pixels
Display aspect ratio             : 2.2:1
Frame rate                       : 29.970 fps
Color space                      : YUV
Chroma subsampling               : 4:2:0
Bit depth                        : 8 bits
Scan type                        : Progressive
Bits/(Pixel*Frame)               : 0.173
Stream size                      : 691 MiB (90%)

Audio
ID                               : 1
Format                           : MPEG Audio
Format version                   : Version 1
Format profile                   : Layer 3
Mode                             : Joint stereo
Mode extension                   : MS Stereo
Codec ID                         : 55
Codec ID/Hint                    : MP3
Duration                         : 1h 20mn
Bit rate mode                    : Constant
Bit rate                         : 128 Kbps
Channel(s)                       : 2 channels
Sampling rate                    : 48.0 KHz
Compression mode                 : Lossy
Stream size                      : 73.4 MiB (10%)
Alignment                        : Split accross interleaves
Interleave, duration             : 33 ms (1.00 video frame)
Interleave, preload duration     : 500 ms
Writing library                  : LAME3.98.4

M  6
A  6

2 Sample from cam inHappyviking.  Open fore all.  